<?xml version="1.0" encoding="utf-8"?>
<!-- Generator: Adobe Illustrator 25.0.1, SVG Export Plug-In . SVG Version: 6.00 Build 0)  -->
<svg version="1.1" id="Layer_1" xmlns="http://www.w3.org/2000/svg" xmlns:xlink="http://www.w3.org/1999/xlink" x="0px" y="0px"
	 viewBox="0 0 699.54 448.42" style="enable-background:new 0 0 699.54 448.42;" xml:space="preserve">
<style type="text/css">
	.st0{fill:url(#SVGID_1_);}
	.st1{fill:url(#SVGID_2_);}
	.st2{fill:url(#SVGID_3_);}
	.st3{fill:url(#SVGID_4_);}
	.st4{fill:url(#SVGID_5_);}
	.st5{fill:#FFFFFF;}
	.st6{fill:url(#SVGID_6_);}
	.st7{fill:url(#SVGID_7_);}
	.st8{fill:url(#SVGID_8_);}
	.st9{fill:url(#SVGID_9_);}
	.st10{fill:url(#SVGID_10_);}
	.st11{fill:url(#SVGID_11_);}
	.st12{fill:url(#SVGID_12_);}
	.st13{fill:url(#SVGID_13_);}
	.st14{fill:url(#SVGID_14_);}
	.st15{fill:url(#SVGID_15_);}
	.st16{fill:url(#SVGID_16_);}
	.st17{fill:url(#SVGID_17_);}
	.st18{fill:url(#SVGID_18_);}
	.st19{fill:url(#SVGID_19_);}
	.st20{fill:url(#SVGID_20_);}
	.st21{fill:url(#SVGID_21_);}
	.st22{fill:url(#SVGID_22_);}
	.st23{fill:url(#SVGID_23_);}
	.st24{fill:url(#SVGID_24_);}
	.st25{fill:url(#SVGID_25_);}
	.st26{fill:url(#SVGID_26_);}
	.st27{fill:url(#SVGID_27_);}
	.st28{fill:url(#SVGID_28_);}
	.st29{fill:url(#SVGID_29_);}
	.st30{fill:url(#SVGID_30_);}
	.st31{fill:url(#SVGID_31_);}
	.st32{fill:url(#SVGID_32_);}
	.st33{fill:url(#SVGID_33_);}
	.st34{fill:url(#SVGID_34_);}
	.st35{fill:url(#SVGID_35_);}
	.st36{fill:url(#SVGID_36_);}
	.st37{fill:url(#SVGID_37_);}
	.st38{fill:url(#SVGID_38_);}
	.st39{fill:url(#SVGID_39_);}
	.st40{fill:url(#SVGID_40_);}
	.st41{fill:url(#SVGID_41_);}
	.st42{fill:url(#SVGID_42_);}
</style>
<g>
	<g>
		<radialGradient id="SVGID_1_" cx="221.3982" cy="430.1467" r="19.0221" gradientUnits="userSpaceOnUse">
			<stop  offset="0" style="stop-color:#FF7F01"/>
			<stop  offset="1" style="stop-color:#ED1C24"/>
		</radialGradient>
		<path class="st0" d="M201.2,447.91l16.54-35.53h7.42l16.44,35.53h-7.97l-9.9-21.32c-0.3-0.68-0.6-1.37-0.91-2.06
			c-0.3-0.7-0.59-1.39-0.86-2.11c-0.27-0.71-0.53-1.41-0.78-2.1c-0.26-0.69-0.49-1.39-0.69-2.1h1.68c-0.2,0.74-0.44,1.47-0.71,2.18
			s-0.55,1.41-0.83,2.1c-0.29,0.7-0.59,1.39-0.89,2.08c-0.3,0.69-0.62,1.41-0.96,2.16l-9.85,21.16H201.2z M208.76,440.8l2.59-6.09
			h19.84l1.47,6.09H208.76z"/>
		<radialGradient id="SVGID_2_" cx="285.4037" cy="430.2716" r="17.7026" gradientUnits="userSpaceOnUse">
			<stop  offset="0" style="stop-color:#FF7F01"/>
			<stop  offset="1" style="stop-color:#ED1C24"/>
		</radialGradient>
		<path class="st1" d="M285.4,448.21c-3.48,0-6.53-0.71-9.13-2.13c-2.61-1.42-4.65-3.37-6.11-5.84c-1.47-2.47-2.21-5.28-2.21-8.42
			v-19.49h7.66v19.24c0,1.89,0.43,3.57,1.3,5.02c0.87,1.46,2.03,2.61,3.5,3.45c1.47,0.85,3.14,1.27,5,1.27
			c1.93,0,3.66-0.42,5.18-1.27c1.53-0.84,2.72-1.99,3.58-3.45c0.86-1.45,1.3-3.13,1.3-5.02v-19.24h7.41v19.49
			c0,3.14-0.73,5.96-2.18,8.42c-1.45,2.47-3.5,4.42-6.14,5.84C291.9,447.5,288.85,448.21,285.4,448.21z"/>
		<radialGradient id="SVGID_3_" cx="353.7027" cy="430.1467" r="18.1891" gradientUnits="userSpaceOnUse">
			<stop  offset="0" style="stop-color:#FF7F01"/>
			<stop  offset="1" style="stop-color:#ED1C24"/>
		</radialGradient>
		<path class="st2" d="M335.1,447.91v-35.53h17.51c3.12,0,5.89,0.45,8.32,1.37c2.44,0.91,4.5,2.2,6.19,3.83
			c1.7,1.64,2.98,3.54,3.86,5.69c0.88,2.15,1.32,4.44,1.32,6.88c0,2.47-0.44,4.78-1.32,6.93s-2.16,4.03-3.86,5.66
			c-1.69,1.62-3.75,2.89-6.19,3.81c-2.43,0.91-5.21,1.37-8.32,1.37H335.1z M342.71,442.38l-0.82-1.31h10.46
			c2.06,0,3.85-0.29,5.35-0.86c1.51-0.58,2.76-1.37,3.75-2.36c1-1,1.74-2.16,2.21-3.48c0.47-1.32,0.71-2.73,0.71-4.21
			c0-1.49-0.24-2.89-0.71-4.19c-0.47-1.3-1.21-2.45-2.21-3.45c-0.99-1-2.25-1.79-3.75-2.39c-1.51-0.59-3.29-0.89-5.35-0.89h-10.61
			l0.97-1.22V442.38z"/>
		<radialGradient id="SVGID_4_" cx="414.3058" cy="430.1467" r="15.2821" gradientUnits="userSpaceOnUse">
			<stop  offset="0" style="stop-color:#FF7F01"/>
			<stop  offset="1" style="stop-color:#ED1C24"/>
		</radialGradient>
		<path class="st3" d="M402,447.91v-6.8h8.47v-21.93H402v-6.8h24.62v6.8h-8.53v21.93h8.53v6.8H402z"/>
		<radialGradient id="SVGID_5_" cx="477.3481" cy="430.0448" r="19.7251" gradientUnits="userSpaceOnUse">
			<stop  offset="0" style="stop-color:#FF7F01"/>
			<stop  offset="1" style="stop-color:#ED1C24"/>
		</radialGradient>
		<path class="st4" d="M477.37,448.42c-3.08,0-5.9-0.47-8.45-1.39c-2.56-0.93-4.78-2.22-6.67-3.89c-1.9-1.66-3.35-3.6-4.37-5.84
			c-1.02-2.23-1.53-4.65-1.53-7.26c0-2.6,0.52-5.02,1.55-7.26c1.03-2.23,2.49-4.18,4.37-5.83c1.87-1.66,4.09-2.95,6.65-3.89
			c2.55-0.93,5.35-1.39,8.4-1.39c3.08,0,5.89,0.47,8.45,1.39c2.56,0.93,4.77,2.23,6.65,3.89c1.88,1.66,3.33,3.6,4.37,5.83
			c1.03,2.24,1.55,4.65,1.55,7.26c0,2.61-0.52,5.03-1.55,7.26c-1.03,2.24-2.49,4.18-4.37,5.84c-1.87,1.66-4.09,2.95-6.65,3.89
			C483.22,447.95,480.42,448.42,477.37,448.42z M477.33,441.21c1.96,0,3.75-0.29,5.35-0.86c1.61-0.58,3-1.36,4.19-2.36
			c1.18-1,2.1-2.18,2.77-3.53c0.66-1.35,0.99-2.83,0.99-4.42c0-1.58-0.33-3.06-0.99-4.41c-0.66-1.35-1.58-2.53-2.77-3.53
			c-1.18-0.99-2.58-1.78-4.19-2.36c-1.6-0.57-3.39-0.86-5.35-0.86c-1.93,0-3.7,0.29-5.31,0.86c-1.61,0.58-3.01,1.35-4.21,2.33
			c-1.2,0.99-2.12,2.15-2.74,3.5c-0.62,1.35-0.94,2.84-0.94,4.46c0,1.59,0.32,3.08,0.94,4.44c0.62,1.37,1.54,2.54,2.74,3.53
			c1.2,0.98,2.6,1.76,4.21,2.33C473.62,440.92,475.39,441.21,477.33,441.21z"/>
	</g>
	<g>
		<path d="M87.61,342.85l-5.72,5.72l5.71,5.72h0.01v11.45l-11.45,11.45H30.37v-11.45h40.07l5.72-5.71v-0.01l-5.73-5.73H30.37v-11.44
			h40.06l5.73-5.72v-0.01l-5.72-5.72H30.37v-11.45h45.79l11.45,11.45V342.85z"/>
		<path d="M156.31,365.75v11.44h-45.79l-11.45-11.44v-45.8h11.45v40.07l5.72,5.73H156.31z"/>
		<path d="M225,331.39v22.9h-40.06l-5.73,5.72v17.18h-11.45v-22.9l11.45-11.45h34.34v-5.73l-5.72-5.73h-40.07v-11.44h45.79
			L225,331.39z M213.55,365.73L225,354.29v22.9h-11.45V365.73l0.12,0.01L213.55,365.73z"/>
		<path d="M247.91,337.11v22.89l5.72,5.73h40.07v11.45h-45.79l-11.45-11.45v-34.35l11.45-11.44h45.79v11.44h-40.06L247.91,337.11z"
			/>
		<path d="M305.16,377.19v-57.24h11.45v57.24H305.16z M362.39,328.03l-20.53,20.53l20.53,20.53v8.1h-8.09l-28.61-28.63l28.61-28.62
			h8.09V328.03z"/>
		<path d="M463.07,319.95v34.33H423l-5.72,5.74v17.17h-11.45v-22.91l5.71-5.72l-5.71-5.75v-22.86h11.45v17.2l5.66,5.68h28.68v-22.88
			H463.07z M451.62,365.73l11.45-11.45v22.9h-11.45V365.73z"/>
		<path d="M531.77,331.39v34.34l-11.45,11.45h-34.34l-11.45-11.45v-22.89h11.45v18.51l4.39,4.38h25.57l4.39-4.38v-25.58l-4.39-4.39
			h-41.4v-11.45h45.79L531.77,331.39z"/>
		<path d="M600.47,365.75v11.44h-45.79l-11.45-11.44v-45.8h11.45v40.07l5.72,5.73H600.47z"/>
		<path d="M611.93,331.39v-11.44h57.24v11.44H611.93z M611.93,354.29v-11.45h57.24v11.45H611.93z M611.93,377.19v-11.45h57.24v11.45
			H611.93z"/>
	</g>
	<path d="M349.77,103.65c-31.07,0-56.24,25.17-56.24,56.25c0,3.35,0.28,6.6,0.85,9.76c0.16,0.95,0.35,1.86,0.57,2.75
		c0.03,0.19,0.06,0.38,0.13,0.57c0.13,0.63,0.29,1.23,0.47,1.83c0.06,0.32,0.13,0.6,0.25,0.88c0.1,0.47,0.25,0.95,0.41,1.42
		c0.1,0.35,0.22,0.69,0.35,1.01c0.13,0.41,0.25,0.82,0.41,1.2c0.13,0.38,0.25,0.73,0.41,1.07c0.13,0.38,0.28,0.73,0.44,1.07
		c0.16,0.38,0.32,0.76,0.47,1.14c0.13,0.28,0.25,0.57,0.38,0.85c0.19,0.44,0.41,0.85,0.6,1.26c0.09,0.22,0.22,0.41,0.32,0.6
		c0.22,0.47,0.44,0.92,0.69,1.36c0.1,0.16,0.19,0.35,0.32,0.51c0.22,0.47,0.47,0.92,0.76,1.36c0.09,0.19,0.22,0.38,0.32,0.54
		c0.28,0.47,0.57,0.92,0.85,1.36c0.41,0.63,0.82,1.26,1.26,1.86c10.2,14.43,26.97,23.84,45.98,23.84c18.98,0,35.78-9.41,45.95-23.84
		c0.47-0.63,0.92-1.29,1.33-1.96c0.28-0.41,0.54-0.82,0.79-1.26c0.16-0.22,0.32-0.47,0.44-0.73c0.25-0.41,0.51-0.82,0.73-1.26
		c0.16-0.25,0.28-0.47,0.41-0.73c0.22-0.41,0.44-0.82,0.63-1.26c0.16-0.25,0.28-0.51,0.38-0.76c0.22-0.41,0.41-0.82,0.57-1.23
		c0.16-0.25,0.25-0.54,0.35-0.82c0.22-0.38,0.38-0.79,0.54-1.2c0.13-0.28,0.25-0.57,0.35-0.88c0.16-0.38,0.31-0.76,0.44-1.14
		c0.13-0.35,0.25-0.73,0.38-1.11c0.13-0.32,0.22-0.66,0.35-1.01c0.13-0.44,0.28-0.92,0.38-1.36c0.13-0.32,0.19-0.63,0.29-0.95
		c0.16-0.54,0.28-1.11,0.41-1.67c0.06-0.22,0.13-0.44,0.16-0.69c0.22-0.85,0.38-1.74,0.54-2.62c0.57-3.16,0.85-6.41,0.85-9.76
		C406.01,128.82,380.81,103.65,349.77,103.65z M400.65,173.23c-0.07,0.3-0.13,0.59-0.26,0.89c-0.1,0.5-0.26,1.02-0.43,1.52
		c-0.1,0.33-0.2,0.69-0.36,1.02c-0.1,0.4-0.23,0.76-0.36,1.16c-0.13,0.43-0.3,0.83-0.5,1.25c-0.1,0.3-0.23,0.63-0.36,0.92
		c-0.16,0.43-0.33,0.83-0.53,1.26c-0.13,0.26-0.23,0.56-0.36,0.83c-0.2,0.43-0.43,0.89-0.66,1.32c-0.13,0.26-0.26,0.53-0.4,0.79
		c-0.23,0.43-0.46,0.86-0.73,1.29c-0.1,0.26-0.26,0.53-0.43,0.76c-0.23,0.46-0.49,0.92-0.79,1.35c-0.16,0.26-0.33,0.53-0.49,0.76
		c-0.26,0.46-0.56,0.89-0.86,1.29c-0.17,0.26-0.33,0.53-0.53,0.76c-0.3,0.46-0.63,0.89-0.96,1.32c-0.53,0.69-1.09,1.39-1.65,2.05
		c-9.64,11.46-24.07,18.72-40.22,18.72c-16.15,0-30.58-7.26-40.22-18.72c-0.53-0.63-1.06-1.29-1.55-1.95
		c-0.36-0.46-0.73-0.92-1.06-1.42c-0.13-0.17-0.26-0.36-0.4-0.56c-0.33-0.46-0.66-0.92-0.96-1.42c-0.13-0.17-0.23-0.33-0.33-0.53
		c-0.3-0.46-0.59-0.92-0.86-1.42c-0.13-0.16-0.23-0.36-0.33-0.56c-0.3-0.46-0.56-0.92-0.79-1.42c-0.13-0.2-0.23-0.43-0.36-0.66
		c-0.2-0.43-0.43-0.83-0.63-1.26c-0.16-0.36-0.3-0.69-0.46-1.02c-0.17-0.4-0.33-0.76-0.5-1.16c-0.16-0.4-0.33-0.79-0.46-1.19
		c-0.2-0.36-0.33-0.73-0.43-1.09c-0.2-0.43-0.33-0.89-0.46-1.32c-0.17-0.33-0.26-0.69-0.33-1.02c-0.2-0.56-0.36-1.09-0.49-1.65
		c-0.1-0.26-0.17-0.5-0.23-0.76c-0.23-0.89-0.46-1.78-0.66-2.71c-0.73-3.47-1.09-7.07-1.09-10.76c0-29.06,23.54-52.6,52.6-52.6
		c29.06,0,52.6,23.54,52.6,52.6c0,3.7-0.36,7.3-1.09,10.76C401.08,171.52,400.89,172.37,400.65,173.23z"/>
	<g>
		<g>
			<g>
				<radialGradient id="SVGID_6_" cx="347.9507" cy="129.5669" r="97.3934" gradientUnits="userSpaceOnUse">
					<stop  offset="0" style="stop-color:#FCEE21"/>
					<stop  offset="1" style="stop-color:#ED1C24"/>
				</radialGradient>
				<path class="st6" d="M349.77,193.78h-88.9C140.5,190.2,0,178.13,0,155.91c0-15.2,65.68-24.57,120.78-29.75
					c55.28-5.2,106.06-33.65,139.32-78.05c18.43-24.61,45.15-41.22,75.22-46.78c9.59-1.77,19.3-1.77,28.88,0
					C394.29,6.88,421,23.5,439.43,48.1c33.25,44.4,84.03,72.85,139.32,78.05c55.1,5.18,120.78,14.55,120.78,29.75
					c0,22.22-140.5,34.29-260.82,37.87H349.77z M349.77,3.38c-4.62,0-9.24,0.42-13.82,1.27c-29.24,5.4-55.21,21.55-73.14,45.48
					c-33.82,45.16-85.47,74.1-141.7,79.39c-86.8,8.17-117.72,18.99-117.72,26.39c0,13,90.26,29.51,257.54,34.49h177.75
					c167.23-4.98,257.49-21.49,257.49-34.49c0-7.4-30.93-18.22-117.72-26.39l0,0c-56.23-5.29-107.88-34.23-141.7-79.39
					c-17.92-23.93-43.9-40.08-73.14-45.48C359.01,3.81,354.39,3.38,349.77,3.38z"/>
				<radialGradient id="SVGID_7_" cx="347.9507" cy="129.5669" r="97.3934" gradientUnits="userSpaceOnUse">
					<stop  offset="0" style="stop-color:#FCEE21"/>
					<stop  offset="1" style="stop-color:#ED1C24"/>
				</radialGradient>
				<path class="st7" d="M270.76,191.82c-72.9-2.09-137.32-6.88-181.45-13.48c-62.36-9.32-62.36-18.86-62.36-22
					c0-3.79,3.77-7.19,11.53-10.38c17.8-7.37,54.11-14.62,99.64-19.89c49.75-5.76,95.29-31.76,124.93-71.33
					c16.29-21.75,40.36-36.88,67.77-42.6l0,0c9.28-1.94,18.37-2.32,27.02-1.11c28.23,3.89,53.83,18.15,72.08,40.14
					c20.62,24.94,47.69,45.39,78.29,59.14c18.06,8.08,35.98,13.37,53.24,15.76c54.18,7.47,83.97,13.41,99.61,19.88
					c7.76,3.19,11.53,6.59,11.53,10.38c0,11.01-35.17,20.13-104.55,27.11c-38.26,3.83-84.61,6.66-134.35,8.19
					c-0.37,0.03-14.84,0.04-49.3,0.08c-16.25,0.01-31.59,0.03-32.15,0.04c-0.5,0.02-27.75,0.03-60.62,0.05
					C279.87,191.82,271.04,191.82,270.76,191.82z M347.76,13.74c-5.3,0-10.73,0.58-16.25,1.73l0,0
					c-26.6,5.55-49.96,20.22-65.76,41.31c-30.2,40.31-76.58,66.79-127.25,72.66c-45.23,5.24-81.22,12.4-98.74,19.66
					c-8.21,3.38-9.44,5.99-9.44,7.25c0,2.29,4.28,10.4,59.4,18.64c44.09,6.59,108.36,11.36,181.07,13.45
					c0.21,0,9.06-0.01,20.83-0.01c23.74-0.01,59.63-0.03,60.53-0.04c0.36-0.01,11.9-0.03,32.24-0.04
					c21.51-0.02,48.27-0.05,49.18-0.08c49.68-1.53,95.95-4.35,133.82-8.15l0.48-0.04c74.67-7.52,101.34-17.19,101.34-23.74
					c0-1.26-1.23-3.87-9.44-7.25c-15.36-6.35-44.9-12.23-98.78-19.66c-17.58-2.42-35.8-7.81-54.16-16.02
					c-31.07-13.97-58.57-34.74-79.51-60.07C409.61,32,384.77,18.17,357.38,14.39C354.23,13.95,351.02,13.74,347.76,13.74z"/>
				<radialGradient id="SVGID_8_" cx="347.9507" cy="129.5669" r="97.3934" gradientUnits="userSpaceOnUse">
					<stop  offset="0" style="stop-color:#FCEE21"/>
					<stop  offset="1" style="stop-color:#ED1C24"/>
				</radialGradient>
				<path class="st8" d="M280.64,189.87c-67.66-1.87-127.55-6.28-168.7-12.45c-58.04-8.7-58.04-17.68-58.04-20.64
					c0-3.58,3.5-6.77,10.72-9.76c18.21-7.63,52.16-15.48,90.83-21.01c44.87-6.42,84.13-29.37,110.55-64.61
					c14.18-18.92,35.6-32.56,60.31-38.41l0,0c9.18-2.17,17.4-2.89,25.15-2.23c26.39,2.24,50.88,14.14,68.94,33.5
					c20.14,21.75,46.05,40.65,74.93,54.65c18.06,8.68,34.04,14.28,48.83,17.11l6.19,1.18c38.27,7.31,68.49,13.08,84.57,19.82
					c7.21,2.99,10.72,6.18,10.72,9.76c0,10.2-31.95,18.65-94.96,25.11c-34.68,3.54-76.77,6.17-122.01,7.63
					c-0.81,0.05-19.13,0.1-44.92,0.16c-14.6,0.03-28.38,0.07-29.08,0.09c-0.99,0.04-26.42,0.06-54.66,0.09
					C289.33,189.86,281.19,189.86,280.64,189.87z M327.09,26.27c-23.94,5.67-44.68,18.86-58.38,37.15
					c-26.96,35.97-67.01,59.39-112.77,65.93c-38.4,5.49-72.05,13.26-90.01,20.78c-7.8,3.24-8.64,5.72-8.64,6.64
					c0,2.12,3.98,9.62,55.09,17.29c41.09,6.15,100.83,10.56,168.3,12.42c0.49-0.01,8.64-0.01,19.35-0.02
					c20.01-0.02,53.49-0.05,54.55-0.08c0.71-0.03,11.55-0.05,29.18-0.09c19.46-0.04,43.67-0.09,44.76-0.15
					c45.21-1.45,87.22-4.07,121.55-7.59l0.41-0.03c87.35-8.97,91.79-19.68,91.79-21.74c0-0.92-0.84-3.41-8.64-6.64
					c-15.76-6.6-45.83-12.35-83.9-19.62l-6.19-1.19c-15.09-2.89-31.33-8.57-49.66-17.39c-29.26-14.18-55.52-33.34-75.94-55.39
					c-17.48-18.75-41.19-30.26-66.75-32.43C343.78,23.49,335.91,24.19,327.09,26.27L327.09,26.27z"/>
				<radialGradient id="SVGID_9_" cx="347.9507" cy="129.5669" r="97.3934" gradientUnits="userSpaceOnUse">
					<stop  offset="0" style="stop-color:#FCEE21"/>
					<stop  offset="1" style="stop-color:#ED1C24"/>
				</radialGradient>
				<path class="st9" d="M290.52,187.91c-62.45-1.64-117.81-5.7-155.94-11.42l-0.55-0.08c-53.18-8.04-53.17-16.43-53.17-19.19
					c0-3.34,3.24-6.33,9.91-9.14c19.37-8.17,50.03-16.44,82.02-22.13c39.27-7,73.43-27.56,96.18-57.9
					c12.28-16.38,30.55-28.21,52.85-34.22l0,0c9.12-2.46,16.49-3.57,23.27-3.33c24.65,0.58,48.02,10.12,65.8,26.85
					c19.96,18.79,44.72,36.13,71.58,50.17c13.1,6.84,28.63,14.39,44.44,18.47c10.81,2.79,21.02,5.27,30.46,7.56
					c22.32,5.43,39.96,9.71,51.43,14.55c6.67,2.81,9.91,5.8,9.91,9.14c0,9.39-28.72,17.17-85.37,23.11
					c-31.1,3.25-68.94,5.69-109.67,7.06c-1.23,0.08-17.58,0.15-40.53,0.24c-12.83,0.05-24.95,0.09-26.01,0.13
					c-1.49,0.05-24.38,0.09-49.74,0.13C298.26,187.9,291.32,187.91,290.52,187.91z M135.56,173.23
					c37.89,5.65,92.94,9.67,154.98,11.3c0.75-0.01,7.69-0.02,16.83-0.03c19.14-0.03,48.06-0.07,49.62-0.13
					c1.11-0.04,12.69-0.08,26.11-0.13c17.42-0.07,39.1-0.14,40.38-0.23c40.71-1.38,78.47-3.81,109.25-7.03l0.39-0.03
					c78.23-8.22,82.2-17.89,82.2-19.74c0-0.82-0.76-3.04-7.84-6.03c-11.22-4.73-28.74-8.99-50.91-14.38
					c-9.46-2.29-19.68-4.78-30.51-7.57c-16.14-4.16-31.89-11.81-45.17-18.75c-27.14-14.17-52.15-31.7-72.33-50.7
					c-17.17-16.16-39.75-25.37-63.57-25.93c-6.4-0.13-13.51,0.85-22.31,3.22c-21.55,5.81-39.2,17.22-51.02,32.99
					c-23.27,31.03-58.17,52.06-98.29,59.2c-31.75,5.65-62.15,13.85-81.3,21.92c-7.08,2.98-7.84,5.21-7.84,6.03
					c0,1.38,2.44,8.65,50.68,15.91L135.56,173.23z"/>
				<radialGradient id="SVGID_10_" cx="347.9507" cy="129.5669" r="97.3934" gradientUnits="userSpaceOnUse">
					<stop  offset="0" style="stop-color:#FCEE21"/>
					<stop  offset="1" style="stop-color:#ED1C24"/>
				</radialGradient>
				<path class="st10" d="M300.39,185.96c-57.21-1.41-108.04-5.1-143.19-10.39l-0.55-0.08c-48.86-7.41-48.85-15.24-48.85-17.83
					c0-3.17,2.89-5.88,9.1-8.53c12.58-5.37,38.81-15.52,73.18-23.25c33.68-7.57,62.74-25.75,81.83-51.19
					c10.22-13.62,25.91-24.01,45.37-30.03l0,0c6.38-1.97,13.82-4.1,21.38-4.44c22.91-1.02,45.15,6.14,62.66,20.18
					c19.25,15.44,42.86,31.24,68.27,45.7l0.68,0.38c13.51,7.69,26.27,14.95,39.39,19.45c14.15,4.86,27.45,8.75,39.19,12.17
					c13.58,3.97,25.31,7.4,33.81,11.03c6.21,2.65,9.1,5.36,9.1,8.53c0,8.58-25.49,15.68-75.78,21.11
					c-27.57,2.97-61.16,5.21-97.34,6.5c-1.77,0.12-19.86,0.22-35.82,0.31c-11.24,0.07-21.86,0.12-23.27,0.17
					c-2.17,0.08-27.6,0.13-44.44,0.17C307.37,185.93,301.44,185.95,300.39,185.96z M158.2,172.31c34.9,5.22,85.42,8.87,142.22,10.27
					c0.99-0.01,6.93-0.03,14.67-0.04c16.81-0.04,42.21-0.09,44.33-0.17c1.46-0.05,11.61-0.11,23.36-0.18
					c15.13-0.09,33.95-0.19,35.67-0.3c36.15-1.29,69.65-3.53,96.94-6.47l0.18-0.04l0.21,0.01c53.53-5.79,72.58-13.17,72.58-17.73
					c0-0.72-0.69-2.71-7.05-5.42c-8.32-3.55-19.96-6.95-33.43-10.89c-11.77-3.44-25.11-7.34-39.33-12.23
					c-13.42-4.6-26.31-11.94-39.97-19.71l-0.68-0.39c-25.56-14.54-49.32-30.45-68.71-46C382.33,49.5,360.83,42.6,338.8,43.59
					c-7.17,0.32-14.36,2.38-20.53,4.3c-18.78,5.81-33.88,15.78-43.67,28.83c-19.57,26.08-49.33,44.71-83.79,52.46
					c-34.1,7.67-60.12,17.75-72.59,23.07c-6.36,2.71-7.05,4.7-7.05,5.42c0,1.26,2.24,7.88,46.37,14.54L158.2,172.31z"/>
				<radialGradient id="SVGID_11_" cx="347.9507" cy="129.5669" r="97.3934" gradientUnits="userSpaceOnUse">
					<stop  offset="0" style="stop-color:#FCEE21"/>
					<stop  offset="1" style="stop-color:#ED1C24"/>
				</radialGradient>
				<path class="st11" d="M310.27,184c-52.03-1.19-98.33-4.51-130.44-9.37c-40.43-6.11-45.1-12.37-45.1-16.55
					c0-2.95,2.64-5.47,8.29-7.91l3.37-1.46c15.23-6.62,36.1-15.68,60.94-22.9c19.89-5.78,47.75-18.2,67.5-44.49
					c8.33-11.1,21.08-19.79,37.89-25.82l1.01-0.36c6.26-2.25,12.18-4.38,18.48-5.18c21.11-2.67,42.23,2.11,59.5,13.49
					c19.84,13.08,42.78,27.39,64.97,41.23c2.99,1.86,5.92,3.75,8.83,5.61c9.25,5.93,17.98,11.54,26.9,15.61
					c14.91,6.81,29.16,11.71,41.73,16.03c8.67,2.98,16.16,5.56,22.36,8.24c5.66,2.45,8.29,4.96,8.29,7.91c0,2.9,0,11.7-66.19,19.1
					c-23.98,2.67-53.31,4.72-85,5.94c-2.24,0.15-17.84,0.28-31.61,0.39c-9.41,0.08-18.29,0.15-20.03,0.21
					c-2.77,0.1-24.91,0.17-39.57,0.22C316.25,183.98,311.51,183.99,310.27,184z M313.3,57.09l0.57,1.59
					c-16.18,5.81-28.4,14.11-36.33,24.67c-20.3,27.04-48.87,39.79-69.26,45.71c-24.64,7.17-45.39,16.18-60.54,22.75l-3.37,1.46
					c-5.8,2.51-6.26,4.32-6.26,4.81c0,1.14,2.03,7.13,42.16,13.2c32.03,4.84,78.18,8.15,130.02,9.34c1.19-0.01,5.93-0.03,12.09-0.05
					c14.63-0.05,36.75-0.12,39.46-0.22c1.79-0.07,10.28-0.13,20.12-0.22c13.04-0.11,29.27-0.24,31.46-0.38
					c31.66-1.22,60.9-3.26,84.62-5.91c61.6-6.88,63.37-14.87,63.37-15.76c0-0.49-0.45-2.3-6.26-4.81
					c-6.08-2.63-13.51-5.19-22.12-8.15c-12.64-4.35-26.97-9.28-42.03-16.16c-9.14-4.18-17.97-9.84-27.32-15.84
					c-2.9-1.86-5.82-3.73-8.78-5.58c-22.22-13.86-45.18-28.19-65.05-41.28c-16.6-10.94-36.92-15.54-57.21-12.96
					c-5.93,0.75-11.68,2.82-17.76,5.01l-1.01,0.36L313.3,57.09z"/>
				<radialGradient id="SVGID_12_" cx="347.9507" cy="129.5669" r="97.3934" gradientUnits="userSpaceOnUse">
					<stop  offset="0" style="stop-color:#FCEE21"/>
					<stop  offset="1" style="stop-color:#ED1C24"/>
				</radialGradient>
				<path class="st12" d="M320.15,182.04c-46.81-0.96-88.58-3.92-117.68-8.34l-0.05-0.01v0c-36.51-5.55-40.73-11.32-40.73-15.18
					c0-3.59,4.27-5.89,7.48-7.3c5.28-2.32,11.26-5.24,17.6-8.34c11.21-5.48,23.93-11.69,37.81-17.11
					c23.26-9.06,41.16-21.79,53.22-37.82c6.59-8.76,16.24-15.63,30.38-21.62l0,0c1.19-0.5,2.36-1.01,3.52-1.52
					c4.74-2.07,9.23-4.03,14.07-5.12c19.28-4.35,39.29-1.93,56.34,6.79c21.35,10.93,42.7,23.65,61.74,36.79
					c4.7,3.24,9.21,6.66,13.57,9.96c6.12,4.64,11.9,9.02,17.83,12.67c14.43,8.89,29.15,14.78,42.14,19.96
					c4.7,1.88,9.07,3.62,12.99,5.35c3.21,1.41,7.48,3.7,7.48,7.3c0,2.58,0,10.42-56.03,17.04l-0.01,0.01l-0.59,0.07
					c-20.41,2.38-45.49,4.23-72.64,5.37c-2.73,0.18-15.81,0.34-27.36,0.47c-7.81,0.09-14.76,0.18-16.83,0.25
					c-3.43,0.12-22.27,0.21-34.73,0.27C325.09,182.02,321.52,182.03,320.15,182.04z M203.32,170.44
					c29.18,4.36,70.55,7.28,116.85,8.23c1.32-0.01,4.9-0.03,9.47-0.05c11.69-0.05,31.25-0.15,34.63-0.26
					c2.08-0.07,9.06-0.16,16.91-0.25c10.94-0.13,24.54-0.29,27.22-0.47c26.91-1.13,51.73-2.96,71.86-5.3l0.07-0.07l0.71-0.01
					c51.91-6.09,53.42-12.97,53.42-13.73c0-0.42-0.4-1.97-5.47-4.2c-3.88-1.71-8.22-3.44-12.88-5.3
					c-12.47-4.98-27.98-11.17-42.66-20.22c-6.06-3.73-11.91-8.16-18.09-12.85c-4.33-3.28-8.81-6.67-13.44-9.87
					C423,93.01,401.79,80.37,380.56,69.5c-16.34-8.36-35.53-10.67-54.05-6.5c-4.53,1.02-8.87,2.92-13.46,4.92
					c-1.17,0.51-2.36,1.03-3.56,1.54c-13.57,5.74-22.79,12.27-29,20.53c-12.44,16.54-30.84,29.64-54.69,38.94
					c-13.74,5.36-26.39,11.54-37.55,16.99c-6.36,3.11-12.38,6.05-17.72,8.4c-5.07,2.23-5.47,3.78-5.47,4.2
					c0,0.62,1.07,6.25,37.85,11.83L203.32,170.44z"/>
				<radialGradient id="SVGID_13_" cx="347.9507" cy="129.5669" r="97.3934" gradientUnits="userSpaceOnUse">
					<stop  offset="0" style="stop-color:#FCEE21"/>
					<stop  offset="1" style="stop-color:#ED1C24"/>
				</radialGradient>
				<path class="st13" d="M330.03,180.09c-41.56-0.73-78.81-3.32-104.93-7.31l-0.31-0.06c-32.42-4.98-36.16-10.24-36.16-13.76
					c0-3.32,3.81-5.4,6.67-6.68c8.55-3.83,17.81-9.45,27.63-15.4c6.07-3.68,12.34-7.48,18.81-11.09c13.21-7.35,28.17-16.81,39-31.2
					c6.13-8.13,14.99-13.35,22.86-17.38l0,0c1.52-0.78,3-1.59,4.48-2.4c3.6-1.96,7.32-4,11.22-5.34
					c17.45-6.02,36.33-5.99,53.15,0.08c20.4,7.34,40.64,18.52,58.54,32.35c6.17,4.76,11.72,9.96,17.09,14.99
					c3.43,3.21,6.67,6.25,9.99,9.1c13.73,11.81,30.45,19.28,43.89,25.28l2.27,1.01c2.86,1.28,6.67,3.36,6.67,6.68
					c0,2.29,0,9.25-47.01,15.1c-16.93,2.1-37.75,3.76-60.33,4.81c-3.31,0.22-14.05,0.41-23.52,0.58c-5.79,0.1-10.95,0.19-13.23,0.27
					c-4.31,0.15-20.82,0.26-30.67,0.33L330.03,180.09z M225.85,169.48c25.96,3.94,62.95,6.51,104.19,7.23l6.08-0.04
					c9.84-0.07,26.31-0.18,30.58-0.33c2.28-0.08,7.47-0.17,13.28-0.28c8.97-0.16,20.13-0.36,23.39-0.57
					c22.53-1.05,43.26-2.7,60-4.78c43.65-5.43,44.15-11.5,44.15-11.75c0-0.25-0.23-1.61-4.67-3.59l-2.27-1.01
					c-13.64-6.09-30.62-13.67-44.72-25.8c-3.37-2.9-6.64-5.96-10.1-9.2c-5.31-4.98-10.81-10.12-16.85-14.78
					c-17.38-13.41-37.84-24.72-57.62-31.84c-16.1-5.8-34.18-5.82-50.91-0.06c-3.63,1.25-7.06,3.13-10.7,5.11
					c-1.5,0.82-3.01,1.64-4.55,2.44c-7.52,3.86-15.98,8.82-21.7,16.41c-11.21,14.88-26.54,24.59-40.06,32.12
					c-6.42,3.57-12.66,7.36-18.7,11.02c-9.9,6.01-19.26,11.68-28,15.59c-4.44,1.99-4.67,3.34-4.67,3.59c0,0.22,0.38,5.4,33.51,10.46
					L225.85,169.48z"/>
				<radialGradient id="SVGID_14_" cx="347.9507" cy="129.5669" r="97.3934" gradientUnits="userSpaceOnUse">
					<stop  offset="0" style="stop-color:#FCEE21"/>
					<stop  offset="1" style="stop-color:#ED1C24"/>
				</radialGradient>
				<path class="st14" d="M340.02,178.13c-36.46-0.5-69.18-2.73-92.29-6.28h-1.69l0.04-0.28c-27.31-4.36-30.49-9.02-30.49-12.18
					c0-2.28,1.91-4.26,5.85-6.06c13.44-6.15,26.33-17.37,37.37-27.39c1.53-1.4,3.13-2.81,4.75-4.25
					c6.96-6.17,14.15-12.54,20.14-20.45c4.24-5.61,10.11-9.71,15.28-13.12h0c1.35-0.89,2.67-1.8,3.97-2.71
					c3.15-2.18,6.4-4.44,9.86-6.13c15.55-7.68,33.29-10.05,49.95-6.65c19.75,4.02,39.41,13.93,55.38,27.89
					c9.19,8.04,16.73,17.79,22.79,25.64c8.08,10.44,20.58,19.58,37.17,27.17c3.94,1.8,5.85,3.78,5.85,6.06c0,2.19,0,8.02-37.4,13.09
					c-13.35,1.81-29.92,3.28-48,4.26c-4.18,0.28-13.23,0.52-20.51,0.71c-3.48,0.09-6.63,0.18-8.8,0.25
					C363.01,177.93,346.9,178.08,340.02,178.13z M249.63,168.75c23.12,3.4,54.99,5.52,90.28,6.01c6.94-0.06,23.02-0.2,29.22-0.42
					c2.17-0.08,5.33-0.16,8.82-0.25c7.25-0.2,16.26-0.44,20.4-0.71c18.01-0.97,34.48-2.43,47.67-4.22
					c34.16-4.63,34.56-9.7,34.56-9.75c0-0.12-0.11-1.26-3.88-2.99c-17.09-7.82-30.02-17.3-38.43-28.18
					c-5.97-7.72-13.4-17.34-22.35-25.16c-15.53-13.58-34.65-23.22-53.83-27.12c-16.16-3.29-32.68-1.09-47.78,6.37
					c-3.24,1.58-6.24,3.67-9.42,5.88c-1.33,0.92-2.67,1.85-4.04,2.76l0,0c-5.16,3.4-10.53,7.15-14.45,12.33
					c-6.19,8.18-13.84,14.96-20.59,20.95c-1.61,1.43-3.2,2.83-4.72,4.22c-11.22,10.2-24.36,21.61-38.24,27.96
					c-3.77,1.73-3.88,2.86-3.88,2.99c0,0.19,0.33,4.67,29.24,9.11L249.63,168.75z"/>
				<radialGradient id="SVGID_15_" cx="347.9507" cy="129.5669" r="97.3934" gradientUnits="userSpaceOnUse">
					<stop  offset="0" style="stop-color:#FCEE21"/>
					<stop  offset="1" style="stop-color:#ED1C24"/>
				</radialGradient>
				<path class="st15" d="M349.78,176.18c-31.15-0.28-59.34-2.14-79.42-5.25c-24.95-3.87-27.83-8.18-27.83-11.09
					c0-2.07,1.65-3.85,5.03-5.44c13.05-6.13,23.07-16.06,28.2-27.95c4.4-10.18,10.62-19.36,18.47-27.28
					c15.04-15.15,34.76-23.49,55.53-23.49c20.77,0,40.5,8.34,55.53,23.49c7.86,7.92,14.07,17.1,18.47,27.28
					c5.13,11.89,15.15,21.81,28.2,27.95h0c3.39,1.59,5.03,3.37,5.03,5.44c0,2.91-2.88,7.23-27.79,11.09
					C409.1,174.04,380.9,175.91,349.78,176.18z M349.77,79.07c-19.86,0-38.73,7.98-53.13,22.49c-7.56,7.62-13.54,16.44-17.77,26.23
					c-5.46,12.64-16.06,23.18-29.86,29.66c-3.06,1.44-3.09,2.37-3.09,2.38c0,0.04,0.29,3.93,24.93,7.75
					c19.68,3.05,48.44,4.95,78.95,5.22c30.48-0.27,59.24-2.17,78.87-5.22c24.68-3.83,24.97-7.71,24.97-7.75
					c0-0.01-0.04-0.94-3.1-2.38c-13.79-6.48-24.4-17.02-29.86-29.66c-4.23-9.79-10.21-18.62-17.77-26.23
					C388.5,87.05,369.63,79.07,349.77,79.07z"/>
			</g>
		</g>
		<g>
			<radialGradient id="SVGID_16_" cx="349.7776" cy="244.0713" r="89.4302" gradientUnits="userSpaceOnUse">
				<stop  offset="0" style="stop-color:#FCEE21"/>
				<stop  offset="1" style="stop-color:#ED1C24"/>
			</radialGradient>
			<path class="st16" d="M470.85,207.49c-23.53,44.69-70.33,73.15-121.07,73.15c-50.77,0-97.58-28.47-121.07-73.15
				c1.3,0.04,2.6,0.11,3.9,0.15c23.27,42.57,68.33,69.63,117.17,69.63s93.9-27.06,117.14-69.63
				C468.25,207.61,469.55,207.53,470.85,207.49z"/>
		</g>
		<g>
			<radialGradient id="SVGID_17_" cx="349.759" cy="240.5827" r="82.8875" gradientUnits="userSpaceOnUse">
				<stop  offset="0" style="stop-color:#FCEE21"/>
				<stop  offset="1" style="stop-color:#ED1C24"/>
			</radialGradient>
			<path class="st17" d="M462.31,207.83c-23.01,40.57-65.51,65.51-112.53,65.51c-47.06,0-89.56-24.94-112.57-65.51
				c1.34,0.04,2.67,0.11,4.01,0.15c22.64,38.45,63.43,61.98,108.56,61.98c45.09,0,85.88-23.53,108.56-61.98
				C459.68,207.94,461.01,207.87,462.31,207.83z"/>
		</g>
		<g>
			<radialGradient id="SVGID_18_" cx="349.7776" cy="236.9265" r="75.9438" gradientUnits="userSpaceOnUse">
				<stop  offset="0" style="stop-color:#FCEE21"/>
				<stop  offset="1" style="stop-color:#ED1C24"/>
			</radialGradient>
			<path class="st18" d="M453.25,208.16c-22.16,35.67-61.13,57.53-103.48,57.53s-81.36-21.86-103.48-57.53
				c1.37,0.04,2.71,0.07,4.08,0.11c21.75,33.55,59.01,54.04,99.39,54.04s77.64-20.49,99.36-54.04L453.25,208.16z"/>
		</g>
		<g>
			<radialGradient id="SVGID_19_" cx="349.7405" cy="233.5679" r="68.7055" gradientUnits="userSpaceOnUse">
				<stop  offset="0" style="stop-color:#FCEE21"/>
				<stop  offset="1" style="stop-color:#ED1C24"/>
			</radialGradient>
			<path class="st19" d="M443.6,208.46c-20.78,31.14-56.23,50.22-93.83,50.22c-37.63,0-73.04-19.08-93.9-50.22
				c1.41,0.04,2.78,0.11,4.19,0.15c20.41,28.99,54.04,46.69,89.71,46.69c35.63,0,69.29-17.7,89.71-46.69
				C440.86,208.57,442.23,208.5,443.6,208.46z"/>
		</g>
		<g>
			<radialGradient id="SVGID_20_" cx="349.7776" cy="229.2439" r="61.8707" gradientUnits="userSpaceOnUse">
				<stop  offset="0" style="stop-color:#FCEE21"/>
				<stop  offset="1" style="stop-color:#ED1C24"/>
			</radialGradient>
			<path class="st20" d="M434.81,208.61c-20.3,25.65-51.59,41.27-85.03,41.27s-64.73-15.63-85.03-41.27h4.34
				c19.67,23.61,49.18,37.89,80.69,37.89s61.02-14.29,80.69-37.89H434.81z"/>
		</g>
		<g>
			<radialGradient id="SVGID_21_" cx="349.7776" cy="225.8481" r="54.3457" gradientUnits="userSpaceOnUse">
				<stop  offset="0" style="stop-color:#FCEE21"/>
				<stop  offset="1" style="stop-color:#ED1C24"/>
			</radialGradient>
			<path class="st21" d="M424.68,208.61c-18.41,21.68-45.5,34.48-74.9,34.48c-29.43,0-56.49-12.8-74.9-34.48h4.49
				c17.74,19.6,43.02,31.1,70.41,31.1c27.35,0,52.67-11.51,70.37-31.1H424.68z"/>
		</g>
	</g>
</g>
</svg>
